<?xml version="1.0" encoding="UTF-8"?><svg id="Layer_1" xmlns="http://www.w3.org/2000/svg" viewBox="0 0 500 135.2"><path d="M164.7,118.42c-.28,2.43-1.15,4.3-2.62,5.62-1.47,1.32-3.43,1.98-5.87,1.98-2.65,0-4.77-.97-6.37-2.92-1.6-1.94-2.39-4.55-2.39-7.8v-2.21c0-2.13.37-4.01,1.12-5.63.74-1.62,1.8-2.86,3.16-3.73s2.95-1.3,4.74-1.3c2.38,0,4.29.68,5.73,2.04,1.44,1.36,2.27,3.24,2.51,5.65h-2.97c-.26-1.83-.81-3.16-1.67-3.98-.86-.82-2.05-1.23-3.59-1.23-1.89,0-3.37.72-4.44,2.15-1.07,1.43-1.61,3.47-1.61,6.11v2.22c0,2.49.51,4.48,1.52,5.95,1.02,1.47,2.44,2.21,4.26,2.21,1.64,0,2.9-.38,3.78-1.14s1.46-2.09,1.75-3.98h2.97Z"/><path d="M188.5,114.96c0,2.25-.37,4.21-1.11,5.89-.74,1.68-1.79,2.96-3.14,3.84-1.35.88-2.94,1.32-4.74,1.32s-3.33-.44-4.7-1.33c-1.37-.89-2.42-2.15-3.18-3.8s-1.14-3.55-1.16-5.71v-1.65c0-2.21.37-4.16,1.12-5.85.75-1.69,1.81-2.99,3.18-3.89s2.94-1.35,4.7-1.35,3.38.44,4.75,1.33,2.42,2.17,3.16,3.86c.74,1.69,1.11,3.65,1.11,5.89v1.45ZM185.56,113.48c0-2.72-.53-4.81-1.6-6.27-1.07-1.45-2.56-2.18-4.48-2.18s-3.34.73-4.41,2.18c-1.07,1.46-1.62,3.48-1.66,6.06v1.69c0,2.64.54,4.71,1.62,6.22,1.08,1.51,2.57,2.26,4.47,2.26s3.39-.71,4.43-2.14c1.05-1.42,1.59-3.47,1.62-6.12v-1.7Z"/><path d="M212.68,125.7h-2.97l-11.29-17.69v17.69h-2.97v-22.95h2.97l11.32,17.76v-17.76h2.94v22.95Z"/><path d="M227.69,115.47c-2.54-.75-4.38-1.66-5.54-2.75s-1.73-2.43-1.73-4.03c0-1.81.71-3.3,2.12-4.48s3.25-1.77,5.5-1.77c1.54,0,2.91.31,4.12.91,1.21.61,2.14,1.45,2.8,2.52.66,1.07.99,2.24.99,3.52h-2.97c0-1.39-.43-2.49-1.29-3.28-.86-.8-2.08-1.19-3.65-1.19-1.46,0-2.59.33-3.41.99s-1.22,1.57-1.22,2.74c0,.94.39,1.73,1.16,2.38s2.09,1.24,3.96,1.78,3.32,1.13,4.37,1.77c1.05.65,1.83,1.4,2.34,2.26.51.86.76,1.88.76,3.04,0,1.86-.71,3.35-2.12,4.47-1.42,1.12-3.31,1.68-5.68,1.68-1.54,0-2.98-.3-4.31-.91s-2.36-1.43-3.09-2.48c-.72-1.05-1.09-2.24-1.09-3.58h2.97c0,1.39.5,2.48,1.5,3.29,1,.8,2.34,1.21,4.01,1.21,1.56,0,2.76-.33,3.59-.98.83-.65,1.25-1.54,1.25-2.66s-.38-1.99-1.15-2.61c-.77-.61-2.17-1.22-4.19-1.82Z"/><path d="M258.73,102.75v15.61c-.01,2.16-.67,3.94-1.99,5.31-1.32,1.38-3.11,2.15-5.37,2.32l-.79.03c-2.45,0-4.41-.68-5.87-2.03-1.46-1.36-2.2-3.22-2.22-5.6v-15.64h2.93v15.54c0,1.66.45,2.95,1.34,3.87s2.17,1.38,3.82,1.38,2.95-.46,3.84-1.37c.89-.91,1.33-2.2,1.33-3.86v-15.56h2.97Z"/><path d="M269.52,123.22h10.62v2.47h-13.59v-22.95h2.97v20.48Z"/><path d="M301.71,105.22h-7.21v20.48h-2.94v-20.48h-7.19v-2.47h17.34v2.47Z"/><path d="M311.36,125.7h-2.96v-22.95h2.96v22.95Z"/><path d="M336.52,125.7h-2.97l-11.29-17.69v17.69h-2.97v-22.95h2.97l11.32,17.76v-17.76h2.94v22.95Z"/><path d="M361.47,122.69c-.76,1.11-1.82,1.95-3.18,2.5-1.36.55-2.94.83-4.75.83s-3.45-.44-4.87-1.32c-1.42-.88-2.51-2.13-3.29-3.74-.77-1.62-1.17-3.49-1.19-5.63v-2c0-3.46.79-6.14,2.36-8.04s3.79-2.85,6.64-2.85c2.34,0,4.22.61,5.65,1.84,1.43,1.22,2.3,2.96,2.62,5.21h-2.96c-.55-3.05-2.32-4.57-5.3-4.57-1.98,0-3.48.71-4.5,2.14-1.02,1.43-1.54,3.49-1.55,6.19v1.88c0,2.58.57,4.63,1.72,6.15,1.15,1.52,2.7,2.28,4.67,2.28,1.11,0,2.08-.13,2.91-.38.83-.25,1.52-.68,2.06-1.27v-5.14h-5.19v-2.47h8.13v8.42Z"/><path d="M85.24,27.41h10.02v50.49h-10.63v-33.33l-11.82,16.88h-8.47l-11.96-16.38v32.83h-10.63V27.41h10.09l16.81,23.29,16.6-23.29Z"/><path d="M101.84,27.41h30.99v9.83h-20.36v9.11h17.91v9.83h-17.91v11.89h20.36v9.83h-30.99V27.41Z"/><path d="M171.03,51.9c1.96,1.19,3.45,2.71,4.48,4.56,1.03,1.85,1.54,3.99,1.54,6.41,0,2.28-.54,4.4-1.61,6.37-1.07,1.97-2.59,3.71-4.55,5.23-1.77,1.38-3.79,2.43-6.05,3.17-2.26.74-4.65,1.13-7.17,1.18-2.52,0-4.92-.36-7.21-1.07-2.29-.71-4.32-1.78-6.09-3.2-2.66-2.04-4.48-4.51-5.46-7.41l9.79-4.63c0,.48.16,1.07.49,1.78.33.71.84,1.4,1.54,2.07.7.67,1.61,1.23,2.73,1.71,1.12.48,2.49.71,4.13.71,1.3,0,2.46-.17,3.46-.5,1-.33,1.84-.75,2.52-1.25.68-.5,1.19-1.07,1.54-1.71.35-.64.52-1.29.52-1.96,0-.76-.24-1.47-.74-2.14-.49-.66-1.25-1.19-2.27-1.57-1.87-.66-3.84-1.22-5.91-1.67-2.08-.45-4.09-1.02-6.05-1.71-1.96-.69-3.78-1.6-5.46-2.74-1.68-1.14-3.01-2.73-3.99-4.77-.89-1.8-1.33-3.73-1.33-5.77,0-2.28.52-4.49,1.57-6.62,1.05-2.14,2.48-3.94,4.3-5.41,1.73-1.38,3.66-2.43,5.81-3.17,2.14-.74,4.41-1.1,6.79-1.1s4.65.36,6.82,1.07c2.17.71,4.12,1.76,5.84,3.13,1.68,1.28,3.01,2.78,3.99,4.49l-7.98,5.55c-.98-1.38-2.2-2.48-3.67-3.31-1.47-.83-3.11-1.25-4.93-1.25-2.52,0-4.47.57-5.84,1.71-1.38,1.14-2.06,2.63-2.06,4.49,0,.85.38,1.61,1.15,2.28.77.67,1.77,1.26,3.01,1.78,1.23.52,2.62.99,4.16,1.39,1.54.4,3.07.81,4.58,1.21,1.52.4,2.95.82,4.3,1.25,1.35.43,2.45.9,3.29,1.42Z"/><path d="M213.08,27.41l20.71,50.49h-11.47l-4.48-10.82h-21.06l-4.41,10.82h-11.54l20.71-50.49h11.54ZM213.85,57.24l-6.51-15.88-6.51,15.88h13.01Z"/><path d="M307.63,72.18c-1.68,2.46-4.02,4.29-7.02,5.51-3,1.22-6.5,1.83-10.49,1.83s-7.62-.97-10.74-2.9c-3.13-1.94-5.55-4.69-7.26-8.26-1.71-3.57-2.59-7.71-2.63-12.41v-4.42c0-7.63,1.74-13.54,5.22-17.73,3.48-4.2,8.37-6.29,14.67-6.29,5.17,0,9.33,1.35,12.48,4.05,3.15,2.7,5.08,6.53,5.78,11.49h-6.53c-1.22-6.72-5.12-10.08-11.7-10.08-4.37,0-7.69,1.57-9.94,4.72s-3.39,7.7-3.42,13.66v4.14c0,5.68,1.27,10.2,3.81,13.55,2.54,3.35,5.97,5.03,10.3,5.03,2.45,0,4.59-.28,6.43-.83,1.84-.56,3.35-1.49,4.56-2.81v-11.34h-11.46v-5.46h17.95v18.57Z"/><path d="M336.67,58.34h-11.63v20.48h-6.56V28.19h16.39c5.58,0,9.87,1.3,12.87,3.89,3,2.6,4.5,6.38,4.5,11.34,0,3.15-.83,5.9-2.5,8.24-1.67,2.34-3.98,4.09-6.95,5.25l11.63,21.49v.42h-7l-10.74-20.48ZM325.04,52.88h10.03c3.24,0,5.82-.86,7.73-2.58,1.91-1.72,2.87-4.02,2.87-6.9,0-3.13-.91-5.54-2.74-7.21-1.82-1.67-4.46-2.52-7.9-2.54h-10v19.23Z"/><path d="M399.46,55.14c0,4.96-.82,9.29-2.45,12.99-1.63,3.7-3.94,6.52-6.94,8.47-2.99,1.95-6.48,2.92-10.47,2.92s-7.36-.98-10.37-2.94c-3.01-1.96-5.35-4.75-7.02-8.38-1.67-3.63-2.52-7.83-2.57-12.6v-3.65c0-4.87.83-9.17,2.48-12.9,1.65-3.73,3.99-6.59,7.02-8.57,3.03-1.98,6.49-2.97,10.39-2.97s7.46.98,10.49,2.94c3.03,1.96,5.36,4.8,6.99,8.52,1.63,3.72,2.45,8.05,2.45,12.99v3.2ZM392.97,51.87c0-6-1.18-10.61-3.54-13.82-2.36-3.21-5.66-4.82-9.89-4.82s-7.37,1.61-9.74,4.82c-2.37,3.21-3.59,7.67-3.66,13.37v3.72c0,5.82,1.2,10.39,3.59,13.72,2.39,3.33,5.68,4.99,9.88,4.99s7.48-1.57,9.79-4.71c2.31-3.14,3.5-7.64,3.57-13.51v-3.76Z"/><path d="M444.1,28.19v34.42c-.02,4.78-1.49,8.68-4.4,11.72-2.91,3.04-6.86,4.74-11.85,5.11l-1.73.07c-5.42,0-9.74-1.5-12.95-4.49-3.22-2.99-4.85-7.1-4.9-12.34V28.19h6.46v34.28c0,3.66.99,6.51,2.96,8.54,1.97,2.03,4.78,3.04,8.43,3.04s6.52-1.01,8.48-3.02c1.96-2.02,2.94-4.86,2.94-8.52V28.19h6.56Z"/><path d="M460.93,59v19.82h-6.53V28.19h18.26c5.42,0,9.66,1.41,12.73,4.24,3.07,2.83,4.61,6.57,4.61,11.23,0,4.91-1.5,8.7-4.5,11.35-3,2.65-7.3,3.98-12.9,3.98h-11.66ZM460.93,53.54h11.73c3.49,0,6.16-.84,8.02-2.53,1.86-1.68,2.79-4.12,2.79-7.3s-.93-5.43-2.79-7.24c-1.86-1.81-4.41-2.75-7.65-2.82h-12.1v19.89Z"/><path d="M264.12,97.71H10V9.19h254.12v88.52ZM21.63,86.06h230.86V20.84H21.63v65.21Z" style="fill:#f9c65d;"/><path d="M477.9,9.19c.2,0,.29.07.29.18v1.12c0,.11-.09.18-.29.18h-2.11v7.33c0,.12-.09.18-.29.18h-1.89c-.18,0-.29-.06-.29-.18v-7.33h-2.11c-.18,0-.29-.07-.29-.18v-1.12c0-.11.11-.18.29-.18h6.68Z"/><path d="M489.63,9.19c.24,0,.36.08.36.22v8.55c0,.15-.13.22-.36.22h-1.69c-.24,0-.36-.08-.36-.22v-5.06h-.13l-1.8,5.08c-.05.13-.18.2-.4.2h-.89c-.22,0-.34-.07-.4-.2l-1.8-5.08h-.13v5.06c0,.15-.13.22-.36.22h-1.67c-.24,0-.36-.08-.36-.22v-8.55c0-.15.13-.22.36-.22h2.4c.22,0,.34.07.4.2l2.02,5.6,2.02-5.6c.05-.13.18-.2.4-.2h2.4Z"/></svg>