<?xml version="1.0" encoding="UTF-8"?><svg id="Layer_1" xmlns="http://www.w3.org/2000/svg" xmlns:xlink="http://www.w3.org/1999/xlink" viewBox="0 0 800 500"><defs><linearGradient id="linear-gradient" x1="454.81" y1="-60.87" x2="345.19" y2="560.87" gradientUnits="userSpaceOnUse"><stop offset="0" stop-color="#f8d899"/><stop offset=".61" stop-color="#e09f37"/><stop offset="1" stop-color="#ca8412"/></linearGradient><linearGradient id="linear-gradient-2" x1="446.52" y1="-51.16" x2="338.8" y2="559.74" gradientUnits="userSpaceOnUse"><stop offset="0" stop-color="#f8d797"/><stop offset=".61" stop-color="#e19f37"/><stop offset="1" stop-color="#cb8513"/></linearGradient><linearGradient id="linear-gradient-3" x1="438.23" y1="-41.46" x2="332.42" y2="558.61" gradientUnits="userSpaceOnUse"><stop offset="0" stop-color="#f8d795"/><stop offset=".61" stop-color="#e1a037"/><stop offset="1" stop-color="#cc8613"/></linearGradient><linearGradient id="linear-gradient-4" x1="429.93" y1="-31.76" x2="326.03" y2="557.49" gradientUnits="userSpaceOnUse"><stop offset="0" stop-color="#f8d693"/><stop offset=".61" stop-color="#e2a037"/><stop offset="1" stop-color="#cd8714"/></linearGradient><linearGradient id="linear-gradient-5" x1="421.64" y1="-22.05" x2="319.65" y2="556.36" gradientUnits="userSpaceOnUse"><stop offset="0" stop-color="#f9d591"/><stop offset=".61" stop-color="#e2a137"/><stop offset="1" stop-color="#ce8815"/></linearGradient><linearGradient id="linear-gradient-6" x1="413.35" y1="-12.35" x2="313.26" y2="555.24" gradientUnits="userSpaceOnUse"><stop offset="0" stop-color="#f9d58f"/><stop offset=".61" stop-color="#e3a137"/><stop offset="1" stop-color="#cf8915"/></linearGradient><linearGradient id="linear-gradient-7" x1="405.05" y1="-2.65" x2="306.88" y2="554.11" gradientUnits="userSpaceOnUse"><stop offset="0" stop-color="#f9d48d"/><stop offset=".61" stop-color="#e4a236"/><stop offset="1" stop-color="#d08a16"/></linearGradient><linearGradient id="linear-gradient-8" x1="396.76" y1="7.05" x2="300.5" y2="552.99" gradientUnits="userSpaceOnUse"><stop offset="0" stop-color="#f9d38b"/><stop offset=".61" stop-color="#e4a236"/><stop offset="1" stop-color="#d18b16"/></linearGradient><linearGradient id="linear-gradient-9" x1="388.47" y1="16.75" x2="294.11" y2="551.86" gradientUnits="userSpaceOnUse"><stop offset="0" stop-color="#f9d389"/><stop offset=".61" stop-color="#e5a336"/><stop offset="1" stop-color="#d28c17"/></linearGradient><linearGradient id="linear-gradient-10" x1="380.17" y1="26.46" x2="287.73" y2="550.73" gradientUnits="userSpaceOnUse"><stop offset="0" stop-color="#f9d287"/><stop offset=".61" stop-color="#e5a336"/><stop offset="1" stop-color="#d38d18"/></linearGradient><linearGradient id="linear-gradient-11" x1="371.88" y1="36.16" x2="281.34" y2="549.61" gradientUnits="userSpaceOnUse"><stop offset="0" stop-color="#f9d285"/><stop offset=".61" stop-color="#e6a436"/><stop offset="1" stop-color="#d48e18"/></linearGradient><linearGradient id="linear-gradient-12" x1="363.59" y1="45.86" x2="274.96" y2="548.48" gradientUnits="userSpaceOnUse"><stop offset="0" stop-color="#fad183"/><stop offset=".61" stop-color="#e7a436"/><stop offset="1" stop-color="#d58f19"/></linearGradient><linearGradient id="linear-gradient-13" x1="355.29" y1="55.56" x2="268.58" y2="547.36" gradientUnits="userSpaceOnUse"><stop offset="0" stop-color="#fad081"/><stop offset=".61" stop-color="#e7a536"/><stop offset="1" stop-color="#d6901a"/></linearGradient><linearGradient id="linear-gradient-14" x1="347" y1="65.26" x2="262.19" y2="546.23" gradientUnits="userSpaceOnUse"><stop offset="0" stop-color="#fad07f"/><stop offset=".61" stop-color="#e8a536"/><stop offset="1" stop-color="#d8911a"/></linearGradient><linearGradient id="linear-gradient-15" x1="338.71" y1="74.96" x2="255.81" y2="545.11" gradientUnits="userSpaceOnUse"><stop offset="0" stop-color="#facf7d"/><stop offset=".61" stop-color="#e9a636"/><stop offset="1" stop-color="#d9921b"/></linearGradient><linearGradient id="linear-gradient-16" x1="330.42" y1="84.66" x2="249.43" y2="543.98" gradientUnits="userSpaceOnUse"><stop offset="0" stop-color="#face7b"/><stop offset=".61" stop-color="#e9a636"/><stop offset="1" stop-color="#da931b"/></linearGradient><linearGradient id="linear-gradient-17" x1="322.12" y1="94.36" x2="243.04" y2="542.85" gradientUnits="userSpaceOnUse"><stop offset="0" stop-color="#face79"/><stop offset=".61" stop-color="#eaa735"/><stop offset="1" stop-color="#db941c"/></linearGradient><linearGradient id="linear-gradient-18" x1="313.83" y1="104.06" x2="236.66" y2="541.73" gradientUnits="userSpaceOnUse"><stop offset="0" stop-color="#facd77"/><stop offset=".61" stop-color="#eaa735"/><stop offset="1" stop-color="#dc951d"/></linearGradient><linearGradient id="linear-gradient-19" x1="305.54" y1="113.75" x2="230.28" y2="540.6" gradientUnits="userSpaceOnUse"><stop offset="0" stop-color="#facc75"/><stop offset=".61" stop-color="#eba735"/><stop offset="1" stop-color="#dd961d"/></linearGradient><linearGradient id="linear-gradient-20" x1="297.25" y1="123.45" x2="223.89" y2="539.48" gradientUnits="userSpaceOnUse"><stop offset="0" stop-color="#fbcc73"/><stop offset=".61" stop-color="#eca835"/><stop offset="1" stop-color="#de971e"/></linearGradient><linearGradient id="linear-gradient-21" x1="288.96" y1="133.15" x2="217.51" y2="538.35" gradientUnits="userSpaceOnUse"><stop offset="0" stop-color="#fbcb71"/><stop offset=".61" stop-color="#eca835"/><stop offset="1" stop-color="#df981f"/></linearGradient><linearGradient id="linear-gradient-22" x1="280.67" y1="142.85" x2="211.13" y2="537.23" gradientUnits="userSpaceOnUse"><stop offset="0" stop-color="#fbca6f"/><stop offset=".61" stop-color="#eda935"/><stop offset="1" stop-color="#e0991f"/></linearGradient><linearGradient id="linear-gradient-23" x1="272.38" y1="152.54" x2="204.74" y2="536.1" gradientUnits="userSpaceOnUse"><stop offset="0" stop-color="#fbca6d"/><stop offset=".61" stop-color="#eda935"/><stop offset="1" stop-color="#e19a20"/></linearGradient><linearGradient id="linear-gradient-24" x1="264.09" y1="162.24" x2="198.36" y2="534.98" gradientUnits="userSpaceOnUse"><stop offset="0" stop-color="#fbc96b"/><stop offset=".61" stop-color="#eeaa35"/><stop offset="1" stop-color="#e29b20"/></linearGradient><linearGradient id="linear-gradient-25" x1="255.8" y1="171.93" x2="191.98" y2="533.85" gradientUnits="userSpaceOnUse"><stop offset="0" stop-color="#fbc869"/><stop offset=".61" stop-color="#efaa35"/><stop offset="1" stop-color="#e39c21"/></linearGradient><linearGradient id="linear-gradient-26" x1="247.51" y1="181.62" x2="185.6" y2="532.73" gradientUnits="userSpaceOnUse"><stop offset="0" stop-color="#fbc867"/><stop offset=".61" stop-color="#efab35"/><stop offset="1" stop-color="#e49d22"/></linearGradient><linearGradient id="linear-gradient-27" x1="239.22" y1="191.32" x2="179.21" y2="531.6" gradientUnits="userSpaceOnUse"><stop offset="0" stop-color="#fcc764"/><stop offset=".61" stop-color="#f0ab34"/><stop offset="1" stop-color="#e59e22"/></linearGradient><linearGradient id="linear-gradient-28" x1="230.93" y1="201.01" x2="172.83" y2="530.48" gradientUnits="userSpaceOnUse"><stop offset="0" stop-color="#fcc762"/><stop offset=".61" stop-color="#f0ac34"/><stop offset="1" stop-color="#e69f23"/></linearGradient><linearGradient id="linear-gradient-29" x1="222.64" y1="210.69" x2="166.45" y2="529.35" gradientUnits="userSpaceOnUse"><stop offset="0" stop-color="#fcc660"/><stop offset=".61" stop-color="#f1ac34"/><stop offset="1" stop-color="#e7a024"/></linearGradient><linearGradient id="linear-gradient-30" x1="214.35" y1="220.38" x2="160.07" y2="528.22" gradientUnits="userSpaceOnUse"><stop offset="0" stop-color="#fcc55e"/><stop offset=".61" stop-color="#f2ad34"/><stop offset="1" stop-color="#e8a124"/></linearGradient><linearGradient id="linear-gradient-31" x1="206.06" y1="230.07" x2="153.69" y2="527.1" gradientUnits="userSpaceOnUse"><stop offset="0" stop-color="#fcc55c"/><stop offset=".61" stop-color="#f2ad34"/><stop offset="1" stop-color="#e9a225"/></linearGradient><linearGradient id="linear-gradient-32" x1="197.78" y1="239.75" x2="147.31" y2="525.97" gradientUnits="userSpaceOnUse"><stop offset="0" stop-color="#fcc45a"/><stop offset=".61" stop-color="#f3ae34"/><stop offset="1" stop-color="#eaa325"/></linearGradient><linearGradient id="linear-gradient-33" x1="189.49" y1="249.43" x2="140.93" y2="524.85" gradientUnits="userSpaceOnUse"><stop offset="0" stop-color="#fcc358"/><stop offset=".61" stop-color="#f3ae34"/><stop offset="1" stop-color="#eba426"/></linearGradient><linearGradient id="linear-gradient-34" x1="181.21" y1="259.11" x2="134.55" y2="523.72" gradientUnits="userSpaceOnUse"><stop offset="0" stop-color="#fdc356"/><stop offset=".61" stop-color="#f4af34"/><stop offset="1" stop-color="#eca527"/></linearGradient><linearGradient id="linear-gradient-35" x1="172.93" y1="268.78" x2="128.17" y2="522.6" gradientUnits="userSpaceOnUse"><stop offset="0" stop-color="#fdc254"/><stop offset=".61" stop-color="#f5af34"/><stop offset="1" stop-color="#eda627"/></linearGradient><linearGradient id="linear-gradient-36" x1="164.64" y1="278.45" x2="121.79" y2="521.48" gradientUnits="userSpaceOnUse"><stop offset="0" stop-color="#fdc152"/><stop offset=".61" stop-color="#f5af34"/><stop offset="1" stop-color="#eea728"/></linearGradient><linearGradient id="linear-gradient-37" x1="156.36" y1="288.12" x2="115.42" y2="520.35" gradientUnits="userSpaceOnUse"><stop offset="0" stop-color="#fdc150"/><stop offset=".61" stop-color="#f6b033"/><stop offset="1" stop-color="#efa829"/></linearGradient><linearGradient id="linear-gradient-38" x1="148.09" y1="297.78" x2="109.04" y2="519.23" gradientUnits="userSpaceOnUse"><stop offset="0" stop-color="#fdc04e"/><stop offset=".61" stop-color="#f6b033"/><stop offset="1" stop-color="#f0a929"/></linearGradient><linearGradient id="linear-gradient-39" x1="139.81" y1="307.43" x2="102.66" y2="518.1" gradientUnits="userSpaceOnUse"><stop offset="0" stop-color="#fdbf4c"/><stop offset=".61" stop-color="#f7b133"/><stop offset="1" stop-color="#f1aa2a"/></linearGradient><linearGradient id="linear-gradient-40" x1="131.54" y1="317.07" x2="96.29" y2="516.98" gradientUnits="userSpaceOnUse"><stop offset="0" stop-color="#fdbf4a"/><stop offset=".61" stop-color="#f8b133"/><stop offset="1" stop-color="#f3ab2a"/></linearGradient><linearGradient id="linear-gradient-41" x1="123.27" y1="326.7" x2="89.92" y2="515.86" gradientUnits="userSpaceOnUse"><stop offset="0" stop-color="#fdbe48"/><stop offset=".61" stop-color="#f8b233"/><stop offset="1" stop-color="#f4ac2b"/></linearGradient><linearGradient id="linear-gradient-42" x1="115.01" y1="336.31" x2="83.55" y2="514.73" gradientUnits="userSpaceOnUse"><stop offset="0" stop-color="#febd46"/><stop offset=".61" stop-color="#f9b233"/><stop offset="1" stop-color="#f5ad2c"/></linearGradient><linearGradient id="linear-gradient-43" x1="106.75" y1="345.91" x2="77.18" y2="513.61" gradientUnits="userSpaceOnUse"><stop offset="0" stop-color="#febd44"/><stop offset=".61" stop-color="#fab333"/><stop offset="1" stop-color="#f6ae2c"/></linearGradient><linearGradient id="linear-gradient-44" x1="98.51" y1="355.47" x2="70.82" y2="512.49" gradientUnits="userSpaceOnUse"><stop offset="0" stop-color="#febc42"/><stop offset=".61" stop-color="#fab333"/><stop offset="1" stop-color="#f7af2d"/></linearGradient><linearGradient id="linear-gradient-45" x1="90.27" y1="364.99" x2="64.46" y2="511.37" gradientUnits="userSpaceOnUse"><stop offset="0" stop-color="#febc40"/><stop offset=".61" stop-color="#fbb433"/><stop offset="1" stop-color="#f8b02e"/></linearGradient><linearGradient id="linear-gradient-46" x1="82.05" y1="374.43" x2="58.11" y2="510.25" gradientUnits="userSpaceOnUse"><stop offset="0" stop-color="#febb3e"/><stop offset=".61" stop-color="#fbb433"/><stop offset="1" stop-color="#f9b12e"/></linearGradient><linearGradient id="linear-gradient-47" x1="73.86" y1="383.76" x2="51.76" y2="509.13" gradientUnits="userSpaceOnUse"><stop offset="0" stop-color="#feba3c"/><stop offset=".61" stop-color="#fcb532"/><stop offset="1" stop-color="#fab22f"/></linearGradient><linearGradient id="linear-gradient-48" x1="65.89" y1="391.95" x2="45.42" y2="508.01" gradientUnits="userSpaceOnUse"><stop offset="0" stop-color="#feba3a"/><stop offset=".61" stop-color="#fdb532"/><stop offset="1" stop-color="#fbb32f"/></linearGradient><linearGradient id="linear-gradient-49" x1="57.94" y1="400.05" x2="39.1" y2="506.89" gradientUnits="userSpaceOnUse"><stop offset="0" stop-color="#ffb938"/><stop offset=".61" stop-color="#fdb632"/><stop offset="1" stop-color="#fcb430"/></linearGradient><linearGradient id="linear-gradient-50" x1="50.02" y1="408.09" x2="32.8" y2="505.78" gradientUnits="userSpaceOnUse"><stop offset="0" stop-color="#ffb836"/><stop offset=".61" stop-color="#feb632"/><stop offset="1" stop-color="#fdb531"/></linearGradient><linearGradient id="linear-gradient-51" x1="42.15" y1="415.99" x2="26.51" y2="504.67" gradientUnits="userSpaceOnUse"><stop offset="0" stop-color="#ffb834"/><stop offset=".61" stop-color="#feb732"/><stop offset="1" stop-color="#feb631"/></linearGradient></defs><polygon points="800 500 400 500 0 500 0 250 0 0 400 0 800 0 800 250 800 500" style="fill:url(#linear-gradient);"/><path d="M0,8.2s.79,0,.79,0c.16,0,391.68.03,391.82.09s392.42.14,392.53.25.19,245.33.25,245.47.09,124.49.09,124.65-.03,121.2-.09,121.34H0V8.2Z" style="fill:url(#linear-gradient-2);"/><path d="M0,16.41s.77,0,.77,0c.32,0,384.17.06,384.44.18s384.84.29,385.05.5.38,240.66.5,240.93.18,122.3.18,122.62-.06,119.09-.17,119.36H0V16.41Z" style="fill:url(#linear-gradient-3);"/><path d="M0,24.61s.76,0,.76,0c.48,0,376.65.1,377.07.27s377.26.43,377.58.75.57,235.98.75,236.4.27,120.11.27,120.59-.09,116.97-.26,117.38H0V24.61Z" style="fill:url(#linear-gradient-4);"/><path d="M0,32.82s.74,0,.74,0c.64,0,369.14.13,369.69.36s369.68.57,370.1.99.76,231.31.99,231.87.36,117.91.36,118.55-.12,114.86-.35,115.4H0V32.82Z" style="fill:url(#linear-gradient-5);"/><path d="M0,41.02s.73,0,.73,0c.8,0,361.62.16,362.32.46s362.1.72,362.63,1.24.95,226.64,1.24,227.33.46,115.72.46,116.52-.15,112.75-.43,113.42H0V41.02Z" style="fill:url(#linear-gradient-6);"/><path d="M0,49.23s.71,0,.71,0c.96,0,354.11.19,354.94.55s354.52.86,355.15,1.49,1.14,221.97,1.49,222.8.55,113.53.55,114.49-.19,110.63-.52,111.45H0V49.23Z" style="fill:url(#linear-gradient-7);"/><path d="M0,57.43s.7,0,.7,0c1.12,0,346.59.23,347.56.64s346.94,1,347.68,1.74,1.33,217.29,1.74,218.27.64,111.34.64,112.46-.22,108.52-.61,109.47H0V57.43Z" style="fill:url(#linear-gradient-8);"/><path d="M0,65.64s.68,0,.69,0c1.28,0,339.08.26,340.19.73s339.36,1.15,340.2,1.99,1.52,212.62,1.99,213.73.73,109.14.73,110.42-.25,106.4-.69,107.49H0V65.64Z" style="fill:url(#linear-gradient-9);"/><path d="M0,73.84s.67,0,.67,0c1.44,0,331.56.29,332.81.82s331.78,1.29,332.73,2.24,1.71,207.95,2.24,209.2.82,106.95.82,108.39-.28,104.29-.78,105.51H0V73.84Z" style="fill:url(#linear-gradient-10);"/><path d="M0,82.05s.65,0,.66,0c1.6,0,324.05.32,325.44.91s324.2,1.44,325.25,2.48,1.9,203.28,2.48,204.67.91,104.76.91,106.36-.31,102.18-.87,103.53H0V82.05Z" style="fill:url(#linear-gradient-11);"/><path d="M0,90.25s.64,0,.64,0c1.76,0,316.53.36,318.06,1s316.63,1.58,317.78,2.73,2.09,198.61,2.73,200.13,1,102.56,1,104.32-.34,100.06-.95,101.55H0V90.25Z" style="fill:url(#linear-gradient-12);"/><path d="M0,98.46s.62,0,.63,0c1.92,0,309.02.39,310.68,1.09s309.05,1.72,310.3,2.98,2.28,193.93,2.98,195.6,1.09,100.37,1.09,102.29-.37,97.95-1.04,99.58H0V98.46Z" style="fill:url(#linear-gradient-13);"/><path d="M0,106.66s.61,0,.61,0c2.08,0,301.5.42,303.31,1.18s301.47,1.87,302.83,3.23,2.47,189.26,3.23,191.07,1.18,98.18,1.18,100.26-.4,95.83-1.13,97.6H0V106.66Z" style="fill:url(#linear-gradient-14);"/><path d="M0,114.87s.59,0,.6,0c2.24,0,293.99.45,295.93,1.28s293.89,2.01,295.36,3.48,2.66,184.59,3.48,186.53,1.28,95.99,1.28,98.23-.43,93.72-1.21,95.62H0V114.87Z" style="fill:url(#linear-gradient-15);"/><path d="M0,123.07s.58,0,.58,0c2.4,0,286.47.49,288.55,1.37s286.31,2.15,287.88,3.73,2.85,179.92,3.73,182,1.37,93.79,1.37,96.19-.46,91.61-1.3,93.64H0V123.07Z" style="fill:url(#linear-gradient-16);"/><path d="M0,131.28s.56,0,.57,0c2.56,0,278.96.52,281.18,1.46s278.73,2.3,280.41,3.98,3.04,175.25,3.98,177.46,1.46,91.6,1.46,94.16-.49,89.49-1.38,91.66H0V131.28Z" style="fill:url(#linear-gradient-17);"/><path d="M0,139.48s.55,0,.55,0c2.72,0,271.44.55,273.8,1.55s271.15,2.44,272.93,4.22,3.23,170.57,4.22,172.93,1.55,89.41,1.55,92.13-.53,87.38-1.47,89.68H0V139.48Z" style="fill:url(#linear-gradient-18);"/><path d="M0,147.69s.53,0,.54,0c2.88,0,263.93.58,266.43,1.64s263.57,2.58,265.46,4.47,3.42,165.9,4.47,168.4,1.64,87.21,1.64,90.1-.56,85.27-1.56,87.71H0V147.69Z" style="fill:url(#linear-gradient-19);"/><path d="M0,155.89s.52,0,.52,0c3.04,0,256.42.62,259.05,1.73s255.99,2.73,257.98,4.72,3.61,161.23,4.72,163.86,1.73,85.02,1.73,88.06-.59,83.15-1.64,85.73H0V155.89Z" style="fill:url(#linear-gradient-20);"/><path d="M0,164.1s.5,0,.51,0c3.2,0,248.9.65,251.67,1.82s248.41,2.87,250.51,4.97,3.8,156.56,4.97,159.33,1.82,82.83,1.82,86.03-.62,81.04-1.73,83.75H0V164.1Z" style="fill:url(#linear-gradient-21);"/><path d="M0,172.3s.49,0,.49,0c3.36,0,241.39.68,244.3,1.91s240.83,3.01,243.03,5.22,3.99,151.88,5.22,154.8,1.91,80.64,1.91,84-.65,78.92-1.82,81.77H0V172.3Z" style="fill:url(#linear-gradient-22);"/><path d="M0,180.51s.47,0,.48,0c3.52,0,233.87.71,236.92,2s233.25,3.16,235.56,5.47,4.18,147.21,5.47,150.26,2,78.44,2,81.96-.68,76.81-1.9,79.79H0V180.51Z" style="fill:url(#linear-gradient-23);"/><path d="M0,188.71s.46,0,.46,0c3.68,0,226.36.75,229.55,2.1s225.67,3.3,228.08,5.71,4.37,142.54,5.71,145.73,2.1,76.25,2.1,79.93-.71,74.7-1.99,77.82H0V188.71Z" style="fill:url(#linear-gradient-24);"/><path d="M0,196.92s.44,0,.45,0c3.84,0,218.84.78,222.17,2.19s218.09,3.45,220.61,5.96,4.55,137.87,5.96,141.2,2.19,74.06,2.19,77.9-.74,72.58-2.08,75.84H0V196.92Z" style="fill:url(#linear-gradient-25);"/><path d="M0,205.12s.43,0,.43,0c4,0,211.33.81,214.79,2.28s210.51,3.59,213.13,6.21,4.74,133.2,6.21,136.66,2.28,71.86,2.28,75.87-.77,70.47-2.16,73.86H0V205.12Z" style="fill:url(#linear-gradient-26);"/><path d="M0,213.33s.41,0,.42,0c4.16,0,203.81.84,207.42,2.37s202.93,3.73,205.66,6.46,4.93,128.52,6.46,132.13,2.37,69.67,2.37,73.83-.8,68.35-2.25,71.88H0V213.33Z" style="fill:url(#linear-gradient-27);"/><path d="M0,221.53s.4,0,.4,0c4.32,0,196.3.88,200.04,2.46s195.35,3.88,198.19,6.71,5.12,123.85,6.71,127.6,2.46,67.48,2.46,71.8-.83,66.24-2.34,69.9H0V221.53Z" style="fill:url(#linear-gradient-28);"/><path d="M0,229.74s.38,0,.39,0c4.48,0,188.78.91,192.67,2.55s187.77,4.02,190.71,6.96,5.31,119.18,6.96,123.06,2.55,65.29,2.55,69.77-.87,64.13-2.42,67.92H0V229.74Z" style="fill:url(#linear-gradient-29);"/><path d="M0,237.94s.37,0,.38,0c4.64,0,181.27.94,185.29,2.64s180.19,4.16,183.24,7.21,5.5,114.51,7.21,118.53,2.64,63.09,2.64,67.74-.9,62.01-2.51,65.95H0V237.94Z" style="fill:url(#linear-gradient-30);"/><path d="M0,246.15s.35,0,.36,0c4.8,0,173.75.97,177.91,2.73s172.61,4.31,175.76,7.45,5.69,109.84,7.45,114c1.76,4.16,2.73,60.9,2.73,65.7s-.93,59.9-2.6,63.97H0v-253.85Z" style="fill:url(#linear-gradient-31);"/><path d="M0,254.35s.34,0,.35,0c4.96,0,166.24,1.01,170.54,2.82,4.3,1.82,165.03,4.45,168.29,7.7s5.88,105.16,7.7,109.46,2.82,58.71,2.82,63.67-.96,57.79-2.68,61.99H0v-245.65Z" style="fill:url(#linear-gradient-32);"/><path d="M0,262.56s.32,0,.33,0c5.12,0,158.72,1.04,163.16,2.92s157.46,4.59,160.81,7.95,6.07,100.49,7.95,104.93,2.92,56.51,2.92,61.64-.99,55.67-2.77,60.01H0v-237.44Z" style="fill:url(#linear-gradient-33);"/><path d="M0,270.76s.31,0,.32,0c5.28,0,151.21,1.07,155.78,3.01s149.88,4.74,153.34,8.2,6.26,95.82,8.2,100.4c1.94,4.58,3.01,54.32,3.01,59.6s-1.02,53.56-2.86,58.03H0v-229.24Z" style="fill:url(#linear-gradient-34);"/><path d="M0,278.97s.29,0,.3,0c5.44,0,143.69,1.1,148.41,3.1s142.3,4.88,145.86,8.45,6.45,91.15,8.45,95.86,3.1,52.13,3.1,57.57-1.05,51.44-2.94,56.05H0v-221.03Z" style="fill:url(#linear-gradient-35);"/><path d="M0,287.17s.27,0,.29,0c5.6,0,136.18,1.14,141.03,3.19s134.72,5.02,138.39,8.7,6.64,86.47,8.7,91.33,3.19,49.94,3.19,55.54-1.08,49.33-3.03,54.08H0v-212.83Z" style="fill:url(#linear-gradient-36);"/><path d="M0,295.38s.26,0,.27,0c5.76,0,128.66,1.17,133.66,3.28s127.14,5.17,130.91,8.94,6.83,81.8,8.94,86.8,3.28,47.74,3.28,53.51-1.11,47.22-3.12,52.1H0v-204.62Z" style="fill:url(#linear-gradient-37);"/><path d="M0,303.58s.24,0,.26,0c5.92,0,121.15,1.2,126.28,3.37s119.56,5.31,123.44,9.19,7.02,77.13,9.19,82.26,3.37,45.55,3.37,51.47-1.14,45.1-3.2,50.12H0v-196.42Z" style="fill:url(#linear-gradient-38);"/><path d="M0,311.79s.23,0,.24,0c6.08,0,113.63,1.23,118.9,3.46s111.98,5.46,115.96,9.44,7.21,72.46,9.44,77.73,3.46,43.36,3.46,49.44-1.17,42.99-3.29,48.14H0v-188.21Z" style="fill:url(#linear-gradient-39);"/><path d="M0,319.99s.21,0,.23,0c6.24,0,106.12,1.27,111.53,3.55s104.4,5.6,108.49,9.69,7.4,67.79,9.69,73.2,3.55,41.16,3.55,47.41-1.2,40.87-3.38,46.16H0v-180.01Z" style="fill:url(#linear-gradient-40);"/><path d="M0,328.2s.2,0,.21,0c6.4,0,98.6,1.3,104.15,3.64,5.55,2.35,96.82,5.74,101.01,9.94s7.59,63.11,9.94,68.66,3.64,38.97,3.64,45.38-1.24,38.76-3.46,44.19H0v-171.8Z" style="fill:url(#linear-gradient-41);"/><path d="M0,336.4s.18,0,.2,0c6.56,0,91.09,1.33,96.78,3.74,5.69,2.41,89.24,5.89,93.54,10.19s7.78,58.44,10.19,64.13,3.74,36.78,3.74,43.34-1.27,36.65-3.55,42.21H0v-163.6Z" style="fill:url(#linear-gradient-42);"/><path d="M0,344.61s.17,0,.18,0c6.72,0,83.57,1.36,89.4,3.83s81.66,6.03,86.07,10.44c4.41,4.41,7.97,53.77,10.44,59.6s3.83,34.59,3.83,41.31-1.3,34.53-3.63,40.23H0v-155.39Z" style="fill:url(#linear-gradient-43);"/><path d="M0,352.81s.15,0,.17,0c6.88,0,76.06,1.39,82.02,3.92s74.08,6.17,78.59,10.68,8.16,49.1,10.68,55.06,3.92,32.39,3.92,39.28-1.33,32.42-3.72,38.25H0v-147.19Z" style="fill:url(#linear-gradient-44);"/><path d="M0,361.02s.14,0,.15,0c7.04,0,68.54,1.43,74.65,4.01s66.5,6.32,71.12,10.93,8.35,44.43,10.93,50.53,4.01,30.2,4.01,37.24-1.36,30.3-3.81,36.27H0v-138.98Z" style="fill:url(#linear-gradient-45);"/><path d="M0,369.22s.12,0,.14,0c7.2,0,61.03,1.46,67.27,4.1,6.24,2.64,58.92,6.46,63.64,11.18,4.72,4.72,8.54,39.75,11.18,45.99s4.1,28.01,4.1,35.21-1.39,28.19-3.89,34.29H0v-130.78Z" style="fill:url(#linear-gradient-46);"/><path d="M0,377.43s.11,0,.12,0c7.36,0,53.52,1.49,59.9,4.19s51.34,6.6,56.17,11.43,8.73,35.08,11.43,41.46,4.19,25.82,4.19,33.18-1.42,26.08-3.98,32.32H0v-122.57Z" style="fill:url(#linear-gradient-47);"/><path d="M0,385.63s.09,0,.11,0c7.52,0,46,1.52,52.52,4.28s43.76,6.75,48.69,11.68,8.92,30.41,11.68,36.93,4.28,23.62,4.28,31.15-1.45,23.96-4.07,30.34H0v-114.37Z" style="fill:url(#linear-gradient-48);"/><path d="M0,393.84s.08,0,.09,0c7.68,0,38.49,1.56,45.14,4.37s36.18,6.89,41.22,11.93,9.11,25.74,11.93,32.39,4.37,21.43,4.37,29.11-1.48,21.85-4.15,28.36H0v-106.16Z" style="fill:url(#linear-gradient-49);"/><path d="M0,402.04s.06,0,.08,0c7.84,0,30.97,1.59,37.77,4.46s28.6,7.03,33.74,12.17c5.14,5.14,9.3,21.06,12.17,27.86s4.46,19.24,4.46,27.08-1.51,19.74-4.24,26.38H0v-97.96Z" style="fill:url(#linear-gradient-50);"/><path d="M0,410.25s.05,0,.07,0c8,0,23.46,1.62,30.39,4.56s21.02,7.18,26.27,12.42,9.49,16.39,12.42,23.33,4.56,17.04,4.56,25.05-1.54,17.62-4.33,24.4H0v-89.75Z" style="fill:url(#linear-gradient-51);"/><path d="M.05,418.45s-.03,0-.05,0v81.55h54.76c2.84-6.92,4.41-14.49,4.41-22.42s-1.65-15.94-4.65-23.01-7.32-13.44-12.67-18.79-11.72-9.68-18.79-12.67-14.85-4.65-23.01-4.65Z" style="fill:#ffb732;"/></svg>